<?xml version="1.0" encoding="utf-8"?>
<!-- Generator: Adobe Illustrator 27.0.0, SVG Export Plug-In . SVG Version: 6.00 Build 0)  -->
<svg version="1.1" id="Layer_1" xmlns="http://www.w3.org/2000/svg" xmlns:xlink="http://www.w3.org/1999/xlink" x="0px" y="0px"
	 viewBox="0 0 100 45" style="enable-background:new 0 0 100 45;" xml:space="preserve">
<style type="text/css">
	.st0{fill:#FFFFFF;}
</style>
<g>
	<rect x="38.5" class="st0" width="7" height="35.2"/>
	<path class="st0" d="M48.3,17.1c0.6-1.7,1.5-3.1,2.7-4.2c1.1-1.2,2.5-2.1,4.1-2.7c1.6-0.6,3.4-1,5.4-1c2,0,3.8,0.3,5.4,1
		c1.6,0.6,3,1.5,4.2,2.7c1.1,1.2,2,2.6,2.7,4.2c0.6,1.7,0.9,3.5,0.9,5.5s-0.3,3.9-0.9,5.5c-0.6,1.6-1.5,3-2.7,4.2
		c-1.1,1.2-2.5,2.1-4.2,2.7c-1.6,0.6-3.4,0.9-5.4,0.9c-2,0-3.8-0.3-5.4-0.9c-1.6-0.6-3-1.5-4.1-2.7c-1.2-1.2-2-2.6-2.7-4.2
		c-0.6-1.6-0.9-3.5-0.9-5.5S47.6,18.8,48.3,17.1 M54.6,25.7c0.2,1,0.5,1.8,1,2.6c0.5,0.8,1.1,1.4,1.9,1.8c0.8,0.5,1.8,0.7,3,0.7
		c1.2,0,2.2-0.2,3-0.7c0.8-0.5,1.4-1.1,1.9-1.8c0.5-0.8,0.8-1.6,1-2.6c0.2-1,0.3-2,0.3-3c0-1-0.1-2-0.3-3c-0.2-1-0.5-1.9-1-2.6
		c-0.5-0.8-1.1-1.4-1.9-1.8c-0.8-0.5-1.8-0.7-3-0.7c-1.2,0-2.2,0.2-3,0.7c-0.8,0.5-1.4,1.1-1.9,1.8c-0.5,0.8-0.8,1.6-1,2.6
		c-0.2,1-0.3,2-0.3,3C54.3,23.7,54.4,24.7,54.6,25.7"/>
	<path class="st0" d="M93.8,9.9l-3.9,0c-1.1-0.4-2.4-0.7-3.8-0.7c-1.8,0-3.3,0.3-4.7,1C80,11,78.9,11.9,77.9,13
		c-0.9,1.2-1.6,2.5-2.1,4c-0.5,1.5-0.7,3.1-0.7,4.8c0,1.7,0.2,3.4,0.6,5c0.4,1.6,1.1,2.9,1.9,4.1c0.9,1.2,2,2.1,3.4,2.8
		c1.4,0.7,3,1,4.9,1c1.5,0,3-0.3,4.4-1c1.4-0.6,2.5-1.6,3.2-3h0.1v3.4c0,1.8-0.4,3.3-1.3,4.5c-0.9,1.2-2.3,1.8-4.3,1.8
		c-1.2,0-2.3-0.3-3.3-0.8c-1-0.5-1.6-1.4-1.9-2.7H76c0.1,1.4,0.5,2.7,1.2,3.7c0.7,1,1.6,1.9,2.7,2.5c1.1,0.7,2.2,1.1,3.5,1.5
		c1.3,0.3,2.6,0.5,3.8,0.5c2.9,0,5.3-0.3,7-1.2c3.9-2,5.1-4.4,5.1-10.1V9.9H93.8z M93.3,25c-0.2,0.8-0.6,1.6-1.1,2.2
		c-0.5,0.7-1.1,1.2-1.9,1.6c-0.8,0.4-1.6,0.6-2.6,0.6c-1.1,0-2-0.2-2.7-0.7c-0.7-0.5-1.3-1.1-1.7-1.8c-0.4-0.7-0.8-1.5-0.9-2.4
		c-0.2-0.9-0.3-1.8-0.3-2.7c0-1,0.1-1.9,0.3-2.7c0.2-0.9,0.6-1.6,1-2.3c0.5-0.7,1.1-1.2,1.8-1.6c0.7-0.4,1.6-0.6,2.5-0.6
		c1.1,0,2.1,0.2,2.9,0.6c0.8,0.4,1.4,1,1.8,1.7c0.5,0.7,0.8,1.6,1,2.5c0.2,0.9,0.3,1.9,0.3,3C93.7,23.3,93.6,24.1,93.3,25"/>
	<rect x="29.2" y="19.4" class="st0" width="5.2" height="5.2"/>
	<path class="st0" d="M9.3,29.5c1,1,2.5,1.5,4.5,1.5c1.4,0,2.6-0.3,3.6-1c1-0.7,1.6-1.4,1.9-2.2h6.1c-1,3-2.5,5.2-4.5,6.5
		c-2,1.3-4.5,1.9-7.3,1.9c-2,0-3.8-0.3-5.4-0.9c-1.6-0.6-2.9-1.5-4-2.7c-1.1-1.2-2-2.6-2.6-4.2C1,26.7,0.7,24.9,0.7,23
		c0-1.9,0.3-3.6,0.9-5.3c0.6-1.6,1.5-3,2.6-4.2c1.1-1.2,2.5-2.1,4.1-2.8c1.6-0.7,3.3-1,5.2-1c2.1,0,4,0.4,5.6,1.2
		c1.6,0.8,2.9,1.9,3.9,3.3c1,1.4,1.8,3,2.2,4.8c0.5,1.8,0.6,3.7,0.5,5.6H7.6C7.7,26.9,8.3,28.5,9.3,29.5 M17.1,16.3
		c-0.8-0.9-2.1-1.4-3.8-1.4c-1.1,0-2,0.2-2.8,0.6c-0.7,0.4-1.3,0.8-1.8,1.4c-0.4,0.6-0.7,1.1-0.9,1.8c-0.2,0.6-0.3,1.2-0.3,1.7h11.3
		C18.5,18.5,17.9,17.2,17.1,16.3"/>
</g>
</svg>
