<?xml version="1.0" encoding="utf-8"?>
<!-- Generator: Adobe Illustrator 27.0.0, SVG Export Plug-In . SVG Version: 6.00 Build 0)  -->
<svg version="1.1" id="Layer_1" xmlns="http://www.w3.org/2000/svg" xmlns:xlink="http://www.w3.org/1999/xlink" x="0px" y="0px"
	 viewBox="0 0 450 500" style="enable-background:new 0 0 450 500;" xml:space="preserve">
<style type="text/css">
	.st0{fill:#FFFFFF;}
</style>
<g>
	<rect x="171.2" y="295.7" class="st0" width="31.6" height="159"/>
	<path class="st0" d="M215.2,373.2c2.8-7.5,6.8-13.9,12-19.2c5.2-5.3,11.4-9.4,18.7-12.3c7.3-2.9,15.4-4.3,24.5-4.3
		c9.1,0,17.3,1.4,24.6,4.3c7.4,2.9,13.6,7,18.8,12.3c5.2,5.3,9.2,11.7,12,19.2c2.8,7.5,4.2,15.9,4.2,25.1c0,9.2-1.4,17.5-4.2,24.9
		c-2.8,7.4-6.8,13.8-12,19c-5.2,5.3-11.5,9.3-18.8,12.1c-7.4,2.8-15.6,4.2-24.6,4.2c-9.1,0-17.2-1.4-24.5-4.2
		c-7.3-2.8-13.5-6.9-18.7-12.1c-5.2-5.3-9.2-11.6-12-19c-2.8-7.4-4.2-15.7-4.2-24.9C210.9,389,212.3,380.7,215.2,373.2 M243.9,411.7
		c0.9,4.4,2.4,8.3,4.6,11.8c2.2,3.5,5,6.3,8.6,8.4c3.6,2.1,8,3.1,13.4,3.1c5.3,0,9.8-1,13.5-3.1c3.6-2.1,6.5-4.9,8.7-8.4
		c2.2-3.5,3.7-7.4,4.6-11.8c0.9-4.4,1.3-8.9,1.3-13.5c0-4.6-0.4-9.1-1.3-13.6c-0.9-4.5-2.4-8.4-4.6-11.8c-2.2-3.4-5-6.2-8.7-8.4
		c-3.6-2.2-8.1-3.2-13.5-3.2c-5.3,0-9.8,1.1-13.4,3.2c-3.6,2.2-6.4,4.9-8.6,8.4c-2.2,3.4-3.7,7.4-4.6,11.8c-0.9,4.5-1.3,9-1.3,13.6
		C242.6,402.8,243,407.3,243.9,411.7"/>
	<path class="st0" d="M420.8,340.5l-17.5,0.1c-5.1-2-10.8-3.2-17.3-3.2c-8,0-15.1,1.6-21.3,4.7c-6.2,3.1-11.3,7.3-15.5,12.6
		c-4.2,5.3-7.3,11.4-9.5,18.3c-2.2,6.9-3.2,14.1-3.2,21.5c0,7.9,0.9,15.3,2.8,22.4c1.9,7.1,4.8,13.2,8.8,18.5
		c4,5.3,9.1,9.4,15.4,12.5c6.2,3,13.7,4.6,22.3,4.6c7,0,13.6-1.4,19.9-4.3c6.3-2.9,11.2-7.4,14.6-13.5h0.4v15.1
		c0.1,8.2-1.8,14.9-5.9,20.3c-4.1,5.3-10.6,8-19.5,8c-5.6,0-10.6-1.2-14.9-3.5c-4.3-2.3-7.2-6.4-8.7-12.4h-31.4
		c0.4,6.5,2.3,12.1,5.5,16.8c3.2,4.7,7.2,8.5,12,11.5c4.8,3,10.2,5.2,16,6.6c5.9,1.4,11.6,2.1,17.3,2.1c13.2,0,23.9-1.4,31.6-5.3
		c17.5-8.9,23.2-19.8,23.2-45.4V340.5H420.8z M418.9,408.6c-1.1,3.8-2.8,7.2-5,10.1c-2.2,3-5,5.3-8.5,7.1c-3.4,1.8-7.4,2.7-11.8,2.7
		c-4.9,0-9-1-12.3-3.1c-3.3-2.1-5.9-4.8-7.9-8c-2-3.3-3.4-6.9-4.2-11c-0.8-4.1-1.2-8.2-1.2-12.4c0-4.3,0.5-8.4,1.4-12.4
		c1-3.9,2.5-7.4,4.7-10.5c2.2-3,4.8-5.5,8-7.2c3.2-1.8,7-2.7,11.5-2.7c5.2,0,9.5,1,12.9,2.9c3.4,1.9,6.2,4.5,8.2,7.8
		c2.1,3.3,3.6,7,4.5,11.2s1.3,8.7,1.3,13.5C420.5,400.8,420,404.8,418.9,408.6"/>
	<rect x="129" y="383.6" class="st0" width="23.7" height="23.7"/>
	<path class="st0" d="M39,429.1c4.7,4.6,11.5,6.8,20.3,6.8c6.3,0,11.7-1.6,16.3-4.7c4.5-3.2,7.3-6.5,8.4-10h27.5
		c-4.4,13.7-11.2,23.4-20.3,29.3c-9.1,5.9-20.1,8.8-33,8.8c-9,0-17-1.4-24.2-4.3c-7.2-2.9-13.3-6.9-18.3-12.2
		c-5-5.3-8.8-11.6-11.6-18.9C1.4,416.5,0,408.4,0,399.6c0-8.5,1.4-16.4,4.2-23.8c2.8-7.3,6.8-13.7,11.9-19.1
		c5.1-5.4,11.3-9.6,18.4-12.7c7.1-3.1,15-4.6,23.7-4.6c9.7,0,18.1,1.9,25.3,5.6c7.2,3.7,13.1,8.8,17.7,15.1c4.6,6.3,8,13.5,10,21.6
		c2.1,8.1,2.8,16.5,2.2,25.3H31.3C31.7,417.2,34.3,424.5,39,429.1 M74.3,369.2c-3.7-4.1-9.4-6.2-17.1-6.2c-5,0-9.1,0.8-12.4,2.5
		c-3.3,1.7-5.9,3.8-7.9,6.3c-2,2.5-3.4,5.1-4.2,7.9c-0.8,2.8-1.3,5.3-1.4,7.5h50.9C80.7,379.3,78.1,373.3,74.3,369.2"/>
	<path class="st0" d="M387,180c-0.9,8.5-6,17.3-15.1,26.3c-9.2,9.1-21,14.9-35.4,17.4c-20.2,3.5-36.6,1-49.1-7.5
		c-12.6-8.5-21.4-24.3-26.5-47.3l188.1-33c-2.2-20.4-7.3-39.4-15.2-57.1c-8-17.7-18.5-32.8-31.6-45.4
		c-13.1-12.6-28.7-21.7-46.7-27.4c-18-5.7-38.1-6.6-60.3-2.7c-19.8,3.5-37.3,10.2-52.4,20.1c-15.1,9.9-27.4,22.1-37,36.4
		c-7.2,10.8-12.7,22.6-16.5,35.4c36.7-13.6,75.4-23,116.5-28.6c-4.2-13-6.4-19.5-11.2-32.5c29.8,14.7,58,30.6,85.9,48.6
		c-20,16.8-38.1,33.5-56.4,52.2c-2.8-12.8-4.3-19.3-7.8-32.2c-47.6,6.4-91.6,18-132.7,35.9c0.2,8.4,1,17,2.5,25.7
		c3.5,20.2,9.9,38.1,19.1,53.8c9.2,15.7,20.5,28.6,34.1,38.7c13.6,10.1,29.1,17,46.8,20.6c17.6,3.7,36.7,3.7,57.2,0.1
		c29.6-5.2,53.6-16.3,72.1-33.4c18.5-17.1,30-42.2,34.6-75.2L387,180z"/>
</g>
</svg>
